<?xml version="1.0" encoding="UTF-8"?><svg id="Layer_2" xmlns="http://www.w3.org/2000/svg" viewBox="0 0 387.96 387.96"><defs><style>.cls-1{fill:#da7787;fill-rule:evenodd;}.cls-2{fill:#d21a23;}.cls-3{fill:#e71f25;}.cls-4{fill:#fff;}.cls-5{fill:#e3b4d2;}.cls-6{fill:none;stroke:#fff;}</style></defs><g id="_レイヤー1"><path class="cls-3" d="M81.51,48.14c-2.11-2.52-4.28-4.77-6.49-6.78C29.78,76.66.67,131.69.67,193.52c0,89.52,61.02,164.8,143.74,186.52,16.64-.39,27.98-3.76,34.01-10.11,6.21-6.58,9.33-18.8,9.33-36.66v-84.43L113.64,100.14c-11.25-22.52-21.96-39.85-32.13-52.01"/><path class="cls-3" d="M298.99,37.62c-7.21-5.13-19.71-7.8-37.48-8v-14.22h6.07C244.78,5.91,219.77.65,193.53.65s-51.25,5.25-74.04,14.74h35.37v14.22c-7.51.2-11.26,2.87-11.26,8,0,1.58.39,3.36,1.18,5.33l93.2,184.58c47.87-74.86,71.82-129.47,71.82-163.84,0-12.24-3.61-20.93-10.81-26.07"/><path class="cls-3" d="M345.53,74.81c-4.24,6.33-8.64,13.37-13.22,21.17l-89.76,152.86v84.43c0,19.82,6.45,33.36,19.36,40.6,72.76-27.6,124.47-97.94,124.47-180.35,0-44.77-15.26-85.98-40.86-118.71"/><path class="cls-1" d="M176.76,288.55c3.87-.12,9.67-1.7,19.27-2.37,9.58-.66,29.5,8.01,34.73,10.24,1.34.57,43.95,14.55,43.93,14.13,0-.42-26.26-11.06-31.05-13.35-8.78-4.18-37.17-14.25-37.17-14.25,3.29-.58,7.23-1.72,11.24-4.01.81-.46,1.57-.94,2.28-1.42,1.77-1.4,3.79-3.09,3.62-3.34-.14-.2-1.56.57-1.85.71-2.6,1.28-25.11,9.73-47.8,8.96-22.75-.77-40.4-9.06-58.29-21.68-2.82-1.98-13.33-7.8-24.34-16.85-5.78-4.74-10.68-8.92-15.08-12.79-10.52-9.23-18.78-17-22.64-20.67-1.16-1.1-1.96-1.86-2.19-2.09-6.57-6.29-20.15-17.34-49.61-38.04,0,0-.93,10.01-.73,10.15,9.69,6.66,48.23,33.41,65.98,50.99,3.33,3.31,6.44,6.68,9.33,11.02,9.13,13.67,10.49,24.88,12.37,29.59,2.35,5.86,7.07,28.42,6.99,31.71-.08,3.3,17.3,23.37,14.22,19.4-14.18-18.3-8.81-27.54-9.74-34.38-.94-6.84-13.88-38.71-13.88-38.71l19.21,13.88s14.1,9.02,27.69,14.76c10.53,4.45,12.98,8.07,16.42,9.53,8.97,3.81,25.45,17.76,43.19,29.39,17.74,11.63,16.05,9.41,10.86,1.5-5.2-7.9-55.04-35.77-52.77-35.32,6.22,1.24,19.48,3.48,25.79,3.28"/><path class="cls-5" d="M73.68,171.99c-.31,1.09-1.3,2.96.53,4.97,1.85,2.02,4.04,3.01,6.76,3.65.35-2.77.69-4.4-1.07-7.57-1.36-2.46-4.36-2.17-4.89-2.01.16,1.13.45,2.04.45,2.04l-1.78-1.08Z"/><path class="cls-5" d="M93.25,186.77c-1.02.57-2.66,1.97-5.15.77-2.5-1.2-4.05-2.99-5.38-5.34,2.71-1.02,4.28-1.76,7.91-.93,2.83.64,3.28,3.5,3.26,4.02-1.19.14-2.17.1-2.17.1l1.53,1.37Z"/><path class="cls-5" d="M69.88,186.06c1.02.58,2.64,2,5.15.82,2.51-1.17,4.08-2.93,5.44-5.27-2.7-1.06-4.26-1.81-7.9-1.03-2.83.61-3.33,3.47-3.3,4,1.18.15,2.17.13,2.17.13l-1.56,1.35Z"/><path class="cls-5" d="M82.7,193.55c.89-.75,2.8-1.78,2.41-4.43-.39-2.65-1.65-4.63-3.55-6.58-1.89,2.13-3.11,3.32-3.46,6.87-.27,2.77,2.42,4.1,2.94,4.25.52-1.02.8-1.94.8-1.94l.86,1.84Z"/><path class="cls-5" d="M90.44,172.61c.25,1.11,1.13,3.02-.83,4.93-1.96,1.9-4.21,2.76-6.96,3.24-.18-2.78-.42-4.43,1.52-7.49,1.51-2.37,4.49-1.9,5.01-1.72-.23,1.12-.57,2.01-.57,2.01l1.83-.97Z"/><path class="cls-5" d="M349.48,267.29c-.19-.87-.18-2.51-2.19-3.23-2.01-.7-3.88-.58-5.98-.03.77,2.03,1.14,3.28,3.51,4.81,1.84,1.19,3.79-.11,4.1-.41-.53-.71-1.06-1.24-1.06-1.24l1.62.09Z"/><path class="cls-5" d="M330.64,263.91c.53-.74,1.22-2.27,3.38-2.25,2.15.02,3.84.76,5.56,1.97-1.57,1.63-2.43,2.67-5.26,3.29-2.21.49-3.48-1.38-3.64-1.76.79-.49,1.49-.79,1.49-.79l-1.54-.46Z"/><path class="cls-5" d="M347.6,256.51c-.91-.07-2.52-.53-3.9,1.13-1.37,1.66-1.91,3.43-2.08,5.52,2.26-.15,3.61-.14,5.91-1.9,1.79-1.37,1.18-3.55,1-3.91-.88.29-1.57.63-1.57.63l.65-1.48Z"/><path class="cls-5" d="M336.08,255.5c-.38.83-1.38,2.19-.22,3.93,1.15,1.74,2.7,2.71,4.7,3.46.62-2.13,1.09-3.37.16-5.99-.75-2.04-3.08-2.08-3.49-2.01-.03.89.08,1.62.08,1.62l-1.22-1.01Z"/><path class="cls-5" d="M337.34,272.97c-.54-.7-1.81-1.76-1.06-3.75.76-1.99,2.06-3.35,3.83-4.6,1.06,1.9,1.78,2.99,1.43,5.78-.27,2.17-2.53,2.83-2.96,2.88-.2-.87-.26-1.61-.26-1.61l-.97,1.3Z"/><path class="cls-5" d="M328.19,295.88c-.24-1.11-.23-3.22-2.81-4.14-2.58-.9-4.97-.75-7.67-.05.98,2.61,1.45,4.21,4.49,6.18,2.36,1.53,4.87-.14,5.27-.52-.67-.92-1.36-1.59-1.36-1.59l2.08.12Z"/><path class="cls-5" d="M304.03,291.56c.67-.95,1.56-2.92,4.33-2.89,2.77.02,4.93.97,7.14,2.53-2.01,2.09-3.12,3.42-6.75,4.22-2.83.63-4.46-1.77-4.67-2.25,1.01-.63,1.91-1.01,1.91-1.01l-1.96-.59Z"/><path class="cls-5" d="M325.79,282.06c-1.17-.09-3.24-.69-5.01,1.45-1.77,2.14-2.44,4.4-2.67,7.09,2.9-.19,4.63-.18,7.57-2.44,2.31-1.76,1.53-4.56,1.29-5.03-1.13.37-2.03.81-2.03.81l.84-1.89Z"/><path class="cls-5" d="M311,280.76c-.49,1.06-1.77,2.81-.28,5.04,1.49,2.23,3.47,3.48,6.03,4.44.79-2.73,1.39-4.33.19-7.69-.94-2.62-3.94-2.67-4.47-2.58-.03,1.14.1,2.09.1,2.09l-1.57-1.3Z"/><path class="cls-5" d="M312.62,303.16c-.7-.9-2.31-2.25-1.35-4.82.96-2.55,2.63-4.29,4.9-5.9,1.36,2.43,2.29,3.83,1.82,7.42-.35,2.79-3.25,3.63-3.79,3.69-.27-1.1-.34-2.06-.34-2.06l-1.25,1.66Z"/><path class="cls-5" d="M189.96,334.79c-.23.95-.3,1.06-.52,2-.22.94,1.52,2.46,2.39,2.59,3.22.43,5.52-2.23,4.82-1.09-1.29,2.1-5,8.18-4.32,11.68.69,3.51,2.96,4.78,3.87,5.02.91.24,2.51-1.28,3.24-1.54.74-.25,1.28,1.32,1.87,1.9.6.58,3.27-.38,5.27-2.25,2-1.88,6.13-8.7,6.01-12.69,0,0,5.66,6,11.84,5.45,1.32-.11,2.38-.53,2.69-1.05.31-.52,0-2.85,0-2.85,0,0,1.91.54,2.95-.31,1.04-.86,1.32-7.62.42-9.82-.89-2.22-3.41-3.88-3.41-3.88-.68-.48-1.85-1.19-1.85-1.19,0,0,5.93-2.69,7.58-4.48,1.68-1.8,2.82-4.57,2.72-4.99-.1-.43-1.35-.95-1.85-1.01-.5-.07.19-1.92.16-2.63-.01-.71-2.08-3.46-3.73-3.53-1.64-.08-8.04.48-11.68,5.04,0,0-1.01-6.11-2.55-7.82-1.53-1.7-2.89-2.83-5.1-2.69-2.22.14-2.3.16-2.54.57-.23.41-.45,1.35-.45,1.35,0,0-.66-.2-1.48-.11-.82.1-1.85,1.58-3.03,3.18-1.18,1.61-2.68,11.5,1.12,14.39,0,0-4.81-1.33-9.48,1.87-4.67,3.19-4.63,4.17-5.64,6-1,1.84.74,2.56.68,2.88M203.74,336.56c-.4.09-.74-.17-.76-.59,0-.42.31-.83.72-.92.4-.09.74.17.76.58.02.42-.3.84-.71.92M207.2,334.3c0-.42.31-.83.71-.92.41-.09.75.17.77.58,0,.42-.31.83-.72.92-.39.09-.74-.17-.76-.58M209.15,338.37c-.41.09-.76-.17-.77-.59,0-.41.31-.82.71-.91.4-.1.74.17.76.59,0,.42-.31.82-.71.92M213.5,338.1c-.41.1-.75-.17-.76-.59-.01-.42.31-.82.71-.91.4-.1.74.17.76.59,0,.41-.31.82-.71.91M202.63,332.61c.25-.06.46.03.61.2.8-1.79,4.9-6.91,6.69-8,.65-.39,1.67-.7,2.71-.94,1.58-.36,3.25-.54,3.94-.61.11-.09.23-.18.38-.21.4-.09.74.17.75.59.02.41-.3.82-.71.92-.4.09-.75-.17-.76-.59,0,0,0-.02,0-.03-1.03.12-3.17.38-4.76.88,1.05.16,3.16.59,7.39,1.46.09-.08.2-.14.33-.17.39-.09.73.17.75.59,0,.41-.31.83-.71.91-.42.1-.75-.17-.76-.58,0-.05,0-.1.02-.15-2.09-.42-4.68-.95-6.32-1.25,1.3.87,3.59,2.42,6.84,4.64.02,0,.03-.02.05-.02.41-.09.75.17.76.59,0,.41-.3.82-.72.91-.39.09-.73-.17-.76-.59,0-.16.06-.3.13-.44-2.12-1.44-4.84-3.29-6.46-4.38,2.25,1.98,5.75,5.83,6.83,7.03.05-.03.1-.06.16-.07.41-.09.75.17.76.59,0,.41-.3.83-.71.92-.41.09-.75-.17-.76-.59,0-.13.03-.25.08-.38-1.56-1.74-4.51-4.93-6.49-6.73,1.7,2.26,4.19,5.42,4.94,6.38.27.05.47.28.48.59.01.42-.31.83-.7.92-.41.09-.75-.17-.77-.59-.01-.26.13-.51.32-.69-1.07-1.36-3.93-5.03-5.46-7.11.55,2.75,3.28,7.7,4.46,9.76.04-.01.07-.03.1-.04.4-.09.74.18.76.58.02.42-.3.83-.71.93-.41.09-.75-.17-.76-.59,0-.15.04-.3.11-.43-1.13-1.94-3.62-6.48-4.4-9.42.23,2.26.85,5.57,1.32,7.89.13-.17.3-.28.5-.33.41-.09.75.17.76.58.02.42-.3.83-.71.92-.11.03-.22.02-.31,0,.03.2.08.39.11.57.03.17.07.31.09.44.32.02.56.24.58.59,0,.41-.31.82-.72.92-.4.08-.74-.18-.76-.59,0-.26.12-.51.32-.69-.03-.12-.06-.27-.09-.42-.49-2.36-1.49-7.31-1.72-10.21-.05.07-.1.15-.14.23-.12,1.8.03,4.65.13,6.53.02.35.03.65.05.93.3.03.52.25.53.59.02.41-.3.83-.7.92-.41.09-.75-.17-.76-.59-.01-.27.13-.54.34-.72-.02-.3-.03-.62-.05-.99-.09-1.63-.2-3.76-.17-5.5-.49,1.1-1.13,2.94-2.34,6.98.15.11.24.27.25.49,0,.42-.31.83-.72.92-.4.09-.74-.17-.76-.59-.01-.4.28-.78.66-.9,1.04-3.47,1.66-5.36,2.13-6.53-.95,1.6-2.01,3.43-2.61,4.5.08.1.13.22.14.37.01.41-.3.83-.71.92-.4.1-.74-.17-.76-.59-.02-.42.3-.83.71-.92.04,0,.07,0,.1,0,.94-1.72,2.96-4.98,4.03-6.71,0-.02,0-.04.01-.07-2.08,2.01-5.19,6.11-5.33,6.9h-.29c.02.41-.29.82-.7.91-.41.09-.75-.17-.77-.59-.01-.42.3-.83.71-.92M218.17,327.63c.02.41-.3.83-.71.92-.41.09-.75-.17-.75-.58-.02-.42.29-.83.71-.93.4-.08.74.17.75.59M215.4,333.53c.01.41-.3.83-.71.91-.41.09-.74-.16-.76-.59,0-.41.31-.82.71-.91.41-.09.74.17.76.59"/><path class="cls-6" d="M193.98.5C87.13.5.5,87.13.5,193.99s86.63,193.47,193.48,193.47,193.48-86.62,193.48-193.47S300.84.5,193.98.5Z"/><rect class="cls-3" x="87.65" y="287.32" width="26.15" height="38.86"/><path class="cls-5" d="M73.81,290.67c.09.76,1.45,1.41,1.8,1.85.35.46-.49,1.42-.69,2.07-.18.55.75,1.84,2.07,2.7.24.15.47.29.72.41.17.08.38.16.61.23,1.25.41,3.35.71,5.31.6.48-.02.95-.07,1.4-.15.83-.15,1.58-.38,2.16-.74,0,0-2.26,6.36-.3,10.75.42.93.95,1.57,1.36,1.62.41.05,1.78-1.03,1.78-1.03,0,0,.15,1.62.96,2.08.81.47,5.1-1.74,6.24-3.19,1.14-1.46,1.52-3.93,1.52-3.93.12-.67.26-1.79.26-1.79,0,0,3.23,3.44,4.77,4.04,1.56.59,3.59.46,3.82.24.24-.22.24-1.34.15-1.73-.09-.39,1.25-.55,1.68-.82.43-.27,1.61-2.79,1.23-4.04-.38-1.25-2.39-5.81-6.19-6.88,0,0,3.54-2.94,4.2-4.69.67-1.75,1.02-3.16.35-4.75-.66-1.6-.7-1.65-1.01-1.68-.32-.02-.96.15-.96.15,0,0-.04-.57-.31-1.15-.28-.58-1.47-.8-2.78-1.11-1.31-.31-7.86,2.12-8.69,5.97l-.19-1.02-.03-.11s-1.26-3.69-3.42-5.25c-3.21-2.33-3.81-1.95-5.21-2.05-1.41-.09-1.41,1.47-1.63,1.53-.64.17-.73.16-1.37.33-.64.18-1.15,2-.99,2.7.25,1.12.83,1.89,1.32,2.4.63.65,1.12.85.62.8-.3-.04-.72-.1-1.19-.14-1.5-.15-3.65-.25-5.37.2-.5.13-.98.32-1.38.56-.17.1-.33.22-.48.34-2,1.76-2.21,3.9-2.12,4.66M89.23,288.4c.25-.16.6-.07.75.2.11.16.11.36.04.52,1.32-.04,5.59,1.18,6.73,2.12.42.35.88.99,1.3,1.69.63,1.05,1.18,2.21,1.41,2.71.09.05.17.11.24.2.16.27.09.61-.17.77-.25.16-.6.07-.76-.2-.16-.27-.09-.61.17-.77,0,0,.01,0,.01,0-.34-.73-1.08-2.22-1.8-3.23.18.84.46,2.56,1.02,6.01.07.05.13.11.18.18.16.27.09.61-.16.77-.26.16-.6.07-.76-.2-.17-.27-.09-.62.16-.78.03-.01.07-.02.1-.03-.28-1.71-.63-3.82-.87-5.15-.2,1.28-.57,3.54-1.1,6.75,0,.01.02.02.03.03.16.27.09.62-.17.78-.26.15-.6.06-.75-.21-.17-.26-.09-.61.16-.77.1-.06.2-.07.31-.07.23-1.35.49-2.95.72-4.35-.09,0-.19-.03-.26-.08-.72,2.19-1.66,4.7-2.01,5.63.03.03.06.06.08.1.17.27.1.61-.16.77-.26.16-.6.07-.76-.2-.16-.27-.08-.62.17-.78.08-.05.17-.07.25-.07.67-1.79,1.89-5.12,2.5-7.23-.97,2.07-2.29,5.04-2.69,5.94.04.22-.05.46-.25.57-.26.16-.59.08-.76-.19-.16-.27-.08-.62.17-.78.16-.1.35-.09.51,0,.57-1.28,2.11-4.72,3.01-6.6-1.57,1.39-3.96,5.18-4.93,6.8.02.02.04.03.06.06.16.27.09.62-.17.78-.25.15-.59.07-.76-.21-.17-.26-.09-.61.17-.77.08-.06.19-.08.3-.07.92-1.53,3.1-5.02,4.73-6.64-.83.61-1.87,1.46-2.85,2.3.1.24.04.51-.18.65-.17.11-.39.08-.55-.03-.34.31-.68.6-.99.87.13.04.26.12.34.26.16.26.08.61-.17.77-.25.16-.6.07-.76-.2-.05-.08-.07-.16-.08-.24-.12.1-.22.2-.33.29-.1.08-.18.16-.25.22.07.24,0,.51-.22.64-.25.16-.59.07-.76-.2-.16-.27-.09-.61.17-.78.16-.1.35-.09.51-.01.08-.06.16-.13.25-.22.51-.46,1.25-1.11,2.05-1.81-.02-.2.07-.39.23-.49.12-.08.26-.09.4-.05,1.13-.97,2.33-1.95,3.24-2.58-.06-.01-.11-.02-.17-.03-1.16.56-2.89,1.69-4.03,2.44-.23.14-.41.26-.57.36.06.23-.02.49-.23.62-.09.05-.18.07-.27.07.01.19-.06.38-.23.48-.24.15-.55.06-.71-.19-.15-.25-.08-.58.16-.73.07-.04.15-.05.21-.06-.02-.21.07-.43.25-.54.17-.11.37-.1.54,0,.18-.12.38-.25.6-.39,1-.65,2.3-1.49,3.38-2.1-.81.03-2.13.22-4.96.76-.02.15-.11.28-.24.36-.18.11-.39.09-.56,0-.22.07-.47-.01-.6-.23-.15-.25-.08-.58.17-.72.13-.08.29-.09.43-.03.24-.12.54-.05.71.18,2.43-.47,3.77-.68,4.63-.75-1.25-.14-2.66-.26-3.48-.33-.04.09-.1.17-.19.23-.25.17-.6.07-.76-.2-.16-.27-.08-.62.17-.77h0c.03-.13.1-.24.22-.31.24-.15.55-.07.71.18.08.13.09.28.07.41,1.36.1,3.73.41,5.02.59.02,0,.03,0,.05-.01-1.8-.84-5.17-1.67-5.7-1.5l-.07-.22c-.25.16-.59.07-.76-.2-.16-.27-.08-.62.17-.77"/><rect class="cls-3" x="19.97" y="197.12" width="15.3" height="19.33"/><path class="cls-5" d="M19.94,187.04s-2.2.66-2.51,1.06c-.3.4-.03.56.3,1.64.33,1.08-4.22-.87-7.91,2.28-3.69,3.14-1.48,3.5-1.48,3.5l.8.39s-1.48.76-1.71,1.45c-.23.7.91,2.88,2.27,3.65,1.36.78,8.1,1.6,9.66,1.21,1.33-.33-9.97,9.03-8.69,16.28,0,0,.3,3.29,1.42,4.05,1.12.77,2.49.52,2.86.41.36-.11.41,1.45,1.04,2.13.63.68,3.94.32,6.2-.82,2.26-1.15,7.04-5,7.54-5.62,0,0,1.51,9.29,5.11,11.13,1.16.6,2.23.44,2.72.14.47-.3.93-.67.93-.67,0,0,1.24.89,2.61.32,1.36-.57,3.91-4.55,4.19-7.77.27-3.23-.43-12.38-3.42-15.42,0,0,4.23-.48,5.92-1.69,1.69-1.21,3.39-3.75,2.29-4.76-1.1-1.01-.83-6.28-3.96-7.87-3.13-1.59-10.05,1.9-11.5,3.82,0,0,1.3-1.88-1.33-5.42-2.63-3.54-6.38-4.07-6.98-4.21-2.01-.5-5.72-.19-6.33-.08-.6.11-.03.88-.03.88M30.98,198.15c.89.33,1.57.29,2.1,1.2.4.68.56,1.53.74,2.31.86,3.74.47,8.1.29,8.84.26.04.47.21.53.47.09.36-.17.76-.58.87-.41.13-.81-.07-.89-.44-.09-.37.17-.77.58-.88.04-.01.07,0,.1-.01l-.29-.09c.18-.5.62-5.37-.44-9.19.26,3.28-.64,7.39-.69,7.61l-.53-.09c0-.05.97-4.44.65-7.69-.02.09-.04.18-.08.28-.16,1.29-.39,2.95-.73,4.72.13.08.23.19.26.35.08.34-.15.7-.51.85-.54,2.49-1.29,5.06-2.34,6.99.07.08.13.17.15.27.09.37-.17.76-.58.88-.41.12-.81-.08-.9-.44-.08-.37.18-.76.59-.88.08-.02.17-.02.25-.02,1-1.85,1.73-4.35,2.26-6.79-.2-.07-.35-.21-.41-.42-.08-.37.18-.76.58-.88.03-.01.06,0,.09-.01.17-.91.33-1.79.43-2.62-.66,1.49-1.55,3.2-2.27,4.55.28.03.5.2.57.47.08.37-.18.76-.59.88-.25.07-.48.02-.66-.1-.13.25-.25.46-.33.63.2.07.37.21.42.43.08.36-.17.76-.58.88-.41.12-.81-.08-.89-.44-.08-.31.09-.62.39-.79,1.08-1.95,3.47-6.46,4.22-8.56.02-.2.05-.39.06-.56-1.18,2.46-3.53,6.06-5.47,8.88.2.07.37.22.42.43.08.37-.18.76-.59.88-.24.07-.48.02-.66-.11-.77,1.11-1.43,2.02-1.82,2.58.04.06.08.13.09.2.09.37-.17.76-.58.89-.41.11-.81-.09-.9-.45-.07-.37.18-.76.59-.88.11-.03.21-.04.32-.03.42-.59,1.17-1.64,2.05-2.92.04-.19.16-.36.33-.49,1.97-2.86,4.47-6.66,5.7-9.17l-4.02,5.44c.12.09.23.2.26.35.08.36-.18.76-.58.88-.2.06-.41.04-.57-.03l-1.84,2.48c.04.06.08.13.09.21.08.36-.18.76-.59.88-.41.12-.81-.07-.89-.43-.09-.37.17-.77.58-.89.11-.03.22-.04.33-.02l.61-.82s-.07.04-.1.05c-.41.12-.81-.08-.89-.44-.08-.37.17-.76.59-.88.41-.12.81.07.89.44,0,.06,0,.11,0,.18l.87-1.19c-.05-.35.2-.72.58-.84.02,0,.02,0,.04,0l4.63-6.26c-2.47,1.76-6.53,6.7-7.86,8.36.03.06.07.11.08.17.09.37-.18.75-.58.89-.41.12-.8-.08-.89-.45-.09-.37.17-.76.58-.88.12-.03.24-.03.35-.02.97-1.22,3.5-4.31,5.8-6.58-1.77,1.4-3.74,3.2-5.34,4.75.12.08.22.2.25.35.09.37-.18.76-.58.88-.29.09-.58,0-.75-.18-.55.54-1.02,1.01-1.39,1.39.1.08.18.18.21.31.08.36-.17.76-.58.88-.42.12-.82-.08-.9-.44-.08-.37.18-.76.59-.88.02,0,.04,0,.07,0,.45-.46,1.12-1.13,1.92-1.91.08-.2.25-.36.46-.45,2.54-2.45,6.13-5.66,8.39-6.71-2.18.76-7.05,4.17-9.5,6,.09.37-.18.77-.58.89-.41.12-.8-.08-.89-.44-.08-.37.17-.76.58-.89.2-.06.39-.04.55.03,1.62-1.22,6.11-4.48,8.87-5.77-1.2.19-3.09.84-5.54,2.7.08.36-.18.76-.59.88-.4.13-.8-.07-.88-.44-.09-.36.17-.75.58-.88.19-.06.38-.04.53.03,2.2-1.67,4.02-2.43,5.35-2.74-2.58-.2-6.31,1.73-7.7,2.5-.1.19-.27.35-.5.42-.41.12-.81-.08-.9-.44-.08-.36.17-.76.59-.88.34-.1.66.03.82.28,1.8-.99,6.22-3.17,8.85-2.21M32.1,210.16c-.41.12-.81-.08-.9-.45-.09-.36.17-.76.58-.88.4-.12.81.07.89.44.09.37-.18.76-.58.89"/><rect class="cls-3" x="71.31" y="231.55" width="22.58" height="18.73"/><path class="cls-5" d="M109.17,241.62s2.08-1.75,1.9-2.27c-.18-.53-5.77-3.02-7.64-1.97-1.24.68,6.62-5.5,6.12-11.05-.5-5.56-2.39-3.33-2.39-3.33l-.93.68s.29-1.98-.23-2.58c-.51-.59-3.41-.41-5.12.66-4.43,2.81-8.47,7.28-9.17,9.18-.57,1.51-.08-11.4-6.78-15.03-1.87-1.57-4.96-1.53-6.54-2.18-.03.02-.06.03-.09.04-1.51.84-2.23,2.44-2.37,2.89-.15.46-1.7-.26-2.79.09-1.1.36-3.04,4.12-3.5,7.14-.45,3.02-.01,10.11.25,10.94,0,0-10.07-2.93-14.35.07-1.39.97-1.98,2.21-2.01,2.89-.05.66,0,1.35,0,1.35,0,0-1.72.9-2.12,2.67-.4,1.76,1.71,6.48,4.65,8.37,2.95,1.89,12.32,5.62,17.34,3.87,0,0-2.46,4.83-2.46,7.26,0,2.43,2.13,7.15,3.87,6.45.73-.29,1.19-1.59,2.69-1.3,2.12.42,1.76,3.01,3.92,1.49.34-.25,3.6-2.79,3.91-3.13,2.99-3.38,4.1-11.19,3.31-13.48,0,0,1.34,3.36,6.61,2.24,3.43-.73,5.77-1.31,8.29-2.66,4.11-2.2,6.91-6.07,7.23-6.78.32-.71-1.58-2.53-1.58-2.53M88.94,246.27c-.94.81-1.37,1.56-2.63,1.7-.94.1-1.87-.15-2.75-.33-4.23-.91-8.2-3.47-8.79-4.04-.23.26-.54.42-.83.36-.42-.08-.62-.56-.45-1.06.17-.51.63-.84,1.04-.75.42.08.62.56.46,1.06-.02.05-.05.08-.07.12l.28-.27c.37.44,4.79,3.31,9.23,4.04-3.36-1.34-6.73-4.34-6.9-4.49l.46-.53s3.64,3.24,7.02,4.49c-.08-.07-.14-.14-.21-.22-1.15-.8-2.6-1.87-4.08-3.11-.17.09-.36.14-.53.1-.38-.08-.58-.5-.47-.97-2.04-1.81-4.02-3.89-5.18-5.98-.12.04-.25.06-.37.04-.41-.09-.62-.56-.45-1.07.17-.51.63-.84,1.05-.75.42.09.62.57.45,1.07-.03.1-.09.19-.14.27,1.1,2,3.02,4.02,5.02,5.8.2-.18.45-.27.69-.22.41.09.61.56.46,1.06,0,.04-.04.07-.05.1.76.63,1.52,1.23,2.23,1.76-.98-1.46-2.02-3.25-2.84-4.71-.23.29-.55.45-.84.38-.42-.09-.62-.56-.46-1.07.1-.3.32-.53.56-.65-.15-.27-.27-.49-.37-.69-.21.2-.47.3-.72.25-.42-.09-.62-.57-.44-1.07.16-.5.63-.84,1.04-.75.34.07.52.41.49.81,1.14,2.13,3.86,6.95,5.39,8.79.17.12.34.24.5.35-1.57-2.51-3.43-6.82-4.84-10.31-.21.18-.46.3-.7.24-.41-.09-.61-.57-.45-1.06.11-.31.32-.54.57-.67-.55-1.38-.98-2.53-1.24-3.24-.09.02-.18.03-.27,0-.41-.09-.62-.57-.45-1.07.17-.51.63-.84,1.05-.75.41.09.61.56.45,1.07-.05.14-.11.25-.2.36.29.74.78,2.07,1.41,3.66.16.14.25.36.24.61,1.42,3.55,3.37,8.13,4.96,10.69l-2.49-7.03c-.17.09-.35.14-.53.11-.42-.09-.61-.57-.45-1.06.08-.26.23-.47.42-.6l-1.14-3.22c-.09.02-.18.02-.26,0-.42-.09-.62-.57-.45-1.07.17-.5.64-.83,1.05-.75.41.09.61.57.45,1.07-.05.14-.12.27-.21.37l.39,1.07s0-.09.01-.13c.17-.5.63-.84,1.05-.75.42.09.62.56.45,1.07-.16.5-.63.83-1.04.75-.07-.02-.11-.05-.17-.09l.54,1.54c.39.12.57.57.41,1.04,0,.02-.01.03-.02.04l2.87,8.11c0-1.67-.44-4.06-.98-6.36-.02-.03-.03-.06-.05-.09-.01-.06,0-.12-.01-.18-.6-2.5-1.28-4.85-1.64-6-.08,0-.15.02-.23,0-.41-.09-.62-.57-.45-1.07.17-.51.64-.83,1.05-.74.41.08.61.56.45,1.06-.05.15-.13.28-.22.39.33,1.07.96,3.22,1.53,5.58.18-.06.35-.03.5.07-.17-1.46-.38-2.92-.58-4.24-.17.09-.35.14-.52.11-.41-.09-.61-.56-.45-1.07.12-.36.4-.63.69-.73-.14-.86-.27-1.61-.38-2.19-.15.07-.3.1-.44.07-.42-.08-.62-.56-.45-1.06.17-.51.63-.84,1.03-.75.43.09.62.56.46,1.06-.01.03-.03.05-.04.08.13.72.32,1.77.53,3.03.13.18.17.44.11.72.61,3.97,1.25,9.43.7,12.42.79-2.75.83-9.71.76-13.28-.42-.08-.62-.56-.45-1.07.16-.49.63-.83,1.05-.75.42.09.62.57.45,1.07-.08.24-.22.44-.41.58.06,2.37.12,8.83-.54,12.47.65-1.4,1.32-3.77,1.23-7.35-.42-.09-.62-.57-.45-1.07.16-.5.63-.84,1.04-.75.42.09.61.56.46,1.06-.08.24-.23.43-.41.57.1,3.21-.42,5.56-1.04,7.15,1.98-2.7,2.69-7.71,2.9-9.58-.11-.2-.15-.47-.05-.76.16-.5.63-.84,1.04-.75.41.09.62.57.45,1.07-.13.42-.49.7-.84.74-.28,2.44-1.23,8.33-3.98,10.69"/><rect class="cls-3" x="149.23" y="280.88" width="12.89" height="13.33"/><rect class="cls-2" x="152.45" y="278.46" width="6.67" height="4.43"/><rect class="cls-3" x="262.84" y="301.42" width="20.74" height="11.28"/><rect class="cls-4" x="215.67" y="271.88" width="12.69" height="9"/><path class="cls-5" d="M241.57,274.15c-.16-.71-1.47-1-1.84-1.35-.37-.35.3-1.48.42-2.15.11-.57-.87-1.58-2.17-2.09-.22-.09-.45-.16-.7-.22-.16-.03-.36-.06-.58-.07-1.19-.08-3.14.13-4.92.71-.43.14-.86.3-1.26.49-.75.34-1.4.75-1.91,1.24,0,0,1.41-6.65-.83-10.4-.48-.8-1.03-1.28-1.41-1.23-.37.06-1.52,1.42-1.52,1.42,0,0-.31-1.51-1.1-1.76-.79-.25-4.48,2.91-5.37,4.57-.89,1.67-.99,4.13-.99,4.13-.04.67-.05,1.79-.05,1.79,0,0-3.31-2.52-4.79-2.71-1.48-.2-3.32.42-3.52.69-.2.27-.08,1.34.04,1.7.12.35-1.08.83-1.45,1.19-.37.36-1.19,3.06-.71,4.17.48,1.11,2.79,4.99,6.37,5.1,0,0-2.93,3.67-3.37,5.52-.43,1.84-.61,3.27.17,4.64.78,1.37.81,1.42,1.11,1.36.29-.05.87-.38.87-.38,0,0,.1.54.41,1.02.31.48,1.42.41,2.64.39,1.23-.03,6.98-3.94,7.32-7.84,0,0,.09.37.29.93l.03.1s1.54,3.24,3.67,4.21c3.17,1.45,3.69.95,4.99.7,1.29-.25,1.13-1.74,1.32-1.85.58-.33.65-.33,1.23-.66.56-.32.84-2.19.62-2.82-.34-1.02-.95-1.62-1.45-1.98-.64-.47-1.11-.56-.64-.61.28-.04.66-.09,1.1-.16,1.38-.22,3.36-.64,4.89-1.5.44-.26.85-.54,1.2-.88.14-.14.29-.28.4-.44,1.66-2.18,1.62-4.28,1.46-4.99M227.7,280.07c-.22.22-.53.21-.71,0-.1-.14-.12-.32-.08-.5-1.21.36-5.24.23-6.38-.4-.42-.23-.9-.73-1.36-1.3-.69-.85-1.31-1.84-1.57-2.25-.09-.02-.16-.06-.23-.14-.18-.21-.15-.57.07-.78.21-.21.53-.21.72,0,.17.21.14.57-.07.78,0,0-.02,0-.02.01.38.61,1.21,1.87,1.97,2.66-.25-.77-.68-2.35-1.55-5.52-.07-.03-.14-.07-.19-.13-.18-.22-.15-.57.08-.78.22-.21.54-.21.71,0,.18.22.15.57-.07.78-.03.03-.05.04-.09.06.43,1.57.97,3.51,1.33,4.74.05-1.28.15-3.54.31-6.75,0,0-.01,0-.03-.02-.17-.22-.14-.57.08-.78.21-.22.54-.21.71,0,.17.22.15.57-.08.78-.08.08-.18.12-.26.14-.08,1.35-.15,2.95-.21,4.34.08-.02.17-.02.24.01.44-2.28,1.03-4.92,1.26-5.9-.03-.03-.06-.04-.09-.07-.18-.22-.15-.57.08-.79.21-.21.53-.21.71,0,.17.22.15.57-.07.79-.07.06-.14.1-.23.12-.43,1.88-1.2,5.37-1.54,7.55.66-2.22,1.57-5.39,1.84-6.36-.05-.2,0-.45.16-.61.23-.21.54-.21.72.01.17.22.15.57-.08.78-.14.14-.32.17-.47.14-.39,1.36-1.44,5.04-2.06,7.06,1.29-1.71,3.07-5.93,3.8-7.72-.01-.01-.04-.02-.05-.04-.18-.22-.14-.58.08-.79.21-.21.53-.21.71,0,.18.22.14.58-.07.79-.08.08-.17.12-.27.14-.68,1.69-2.31,5.56-3.64,7.51.7-.78,1.57-1.85,2.38-2.9-.12-.21-.09-.49.09-.67.15-.14.35-.18.51-.11.29-.38.56-.74.81-1.07-.13,0-.25-.06-.34-.17-.17-.22-.14-.57.08-.78.21-.21.53-.21.71,0,.05.06.08.13.1.21.1-.13.18-.25.26-.36.09-.12.15-.2.21-.28-.09-.22-.05-.49.13-.67.21-.21.54-.21.72,0,.17.22.14.57-.08.79-.14.13-.32.17-.47.14-.06.08-.13.16-.2.26-.43.56-1.02,1.37-1.69,2.23.04.18-.01.38-.16.52-.1.11-.24.15-.35.15-.93,1.21-1.94,2.44-2.7,3.26.05,0,.11-.01.16-.02,1-.82,2.47-2.32,3.44-3.31.18-.19.34-.34.48-.49-.08-.21-.03-.47.14-.64.08-.07.15-.11.24-.13-.03-.17.03-.38.16-.51.2-.2.5-.2.67,0,.16.21.14.54-.07.73-.06.06-.12.09-.19.12.05.2,0,.43-.17.58-.15.14-.33.17-.5.13-.15.15-.32.32-.52.52-.84.86-1.94,1.99-2.88,2.83.75-.22,1.93-.72,4.46-1.93.01-.14.07-.29.18-.4.15-.14.35-.18.52-.12.19-.13.43-.1.57.07.17.2.13.53-.07.73-.12.12-.26.15-.4.13-.21.18-.49.18-.66,0-2.19,1.04-3.38,1.57-4.16,1.84,1.16-.17,2.46-.4,3.21-.53.03-.1.08-.19.16-.27.22-.22.54-.21.71,0,.17.22.15.57-.08.78,0,0,0,0,0,0-.01.13-.07.26-.17.36-.2.2-.5.2-.67,0-.09-.11-.12-.25-.09-.38-1.27.23-3.46.51-4.66.65-.01,0-.03.01-.04.02,1.73.36,4.9.35,5.37.06l.08.19c.22-.21.53-.21.71.01.17.21.14.57-.08.78"/><path class="cls-5" d="M258.43,319.72c.34.74.34.85.68,1.58.34.73,2.27.85,2.91.49,2.36-1.36,2.51-4.28,2.63-3.18.22,2.05.88,7.94,3.13,9.9,2.25,1.96,4.41,1.64,5.13,1.33.72-.31,1-2.12,1.36-2.67.34-.54,1.52.22,2.21.3.69.08,1.98-1.92,2.33-4.18.36-2.25-.4-8.86-2.52-11.42,0,0,6.83,1.06,10.64-2.46.81-.75,1.3-1.56,1.24-2.06-.06-.5-1.46-1.87-1.46-1.87,0,0,1.55-.61,1.79-1.71.25-1.1-3.02-5.69-4.75-6.68-1.72-1-4.25-.81-4.25-.81-.69.03-1.84.16-1.84.16,0,0,2.55-4.8,2.73-6.82.18-2.04-.48-4.45-.76-4.68-.28-.23-1.37.06-1.74.27-.36.21-.87-1.35-1.24-1.81-.38-.45-3.16-1.21-4.29-.42-1.13.79-5.09,4.42-5.15,9.28,0,0-3.81-3.5-5.7-3.84-1.89-.34-3.36-.39-4.76.84-1.4,1.23-1.45,1.28-1.39,1.66.06.39.4,1.12.4,1.12,0,0-.55.2-1.04.68-.49.48-.41,1.98-.37,3.64.04,1.66,4.12,8.93,8.11,8.9,0,0-3.87,1.59-5.32,6.07-1.46,4.49-.93,5.12-.67,6.84.28,1.72,1.8,1.3,1.92,1.55M268.47,313.85c-.22.26-.58.26-.8,0-.22-.27-.23-.7,0-.97.22-.26.58-.26.8,0,.22.26.22.7,0,.97M269.6,310.58c-.22-.26-.22-.69,0-.96.22-.26.59-.26.81,0,.22.26.22.7,0,.97-.23.26-.59.26-.81,0M272.98,312.28c-.22.26-.58.26-.8,0-.22-.27-.22-.7,0-.97.22-.27.58-.27.8,0,.22.27.22.7,0,.97M275.72,309.88c-.22.27-.58.27-.8,0-.22-.27-.23-.7,0-.97.23-.27.59-.27.8,0,.22.27.23.7,0,.97M265.71,311.81c.14-.17.33-.21.51-.17-.39-1.58-.29-7.05.32-8.68.23-.59.75-1.31,1.32-2.01.86-1.04,1.87-2.01,2.3-2.41.02-.12.05-.24.14-.33.22-.27.58-.27.8,0,.22.26.22.69,0,.97-.22.27-.58.26-.8,0,0-.01,0-.02-.02-.03-.62.61-1.9,1.88-2.71,3.02.79-.44,2.4-1.23,5.64-2.8.03-.1.07-.2.13-.28.22-.26.58-.27.81,0,.22.26.21.7,0,.96-.23.27-.59.27-.81,0-.03-.03-.04-.07-.06-.11-1.6.79-3.58,1.77-4.83,2.4,1.31-.09,3.62-.24,6.92-.44,0,0,.01-.02.02-.05.22-.26.58-.26.8,0,.23.27.23.7,0,.97-.22.27-.58.27-.8,0-.09-.09-.13-.22-.15-.35-2.14.13-4.88.3-6.52.42,2.5.15,6.79.89,8.12,1.14.02-.05.04-.09.07-.13.23-.27.58-.27.81,0,.22.26.22.7,0,.97-.23.27-.59.27-.81,0-.07-.08-.11-.18-.14-.28-1.92-.35-5.52-.94-7.75-1.11,2.28.61,5.54,1.43,6.54,1.67.21-.11.46-.07.63.14.22.27.22.7,0,.97-.22.27-.59.27-.8,0-.15-.17-.19-.4-.15-.62-1.4-.35-5.18-1.29-7.25-1.88,1.77,1.53,6.11,3.4,7.95,4.15.02-.02.02-.06.05-.08.22-.27.59-.26.8,0,.23.27.22.7,0,.97-.21.26-.58.26-.79,0-.08-.1-.13-.22-.15-.35-1.74-.71-5.73-2.42-7.75-3.96,1.31,1.37,3.42,3.23,4.92,4.52,0-.17.06-.34.17-.47.21-.27.58-.27.79,0,.22.27.22.7,0,.97-.06.07-.14.12-.21.15.13.12.25.22.37.32.12.09.2.17.29.24.22-.15.5-.13.68.09.22.27.23.7,0,.97-.22.26-.58.26-.8,0-.14-.17-.18-.41-.15-.62-.08-.07-.17-.15-.28-.24-1.53-1.3-4.74-4.05-6.37-5.83,0,.07,0,.14.01.21.86,1.26,2.41,3.04,3.44,4.23.19.22.36.41.51.59.22-.14.48-.1.66.11.22.26.22.7,0,.97-.22.27-.58.27-.8,0-.15-.18-.19-.42-.14-.65-.17-.19-.35-.39-.54-.63-.89-1.03-2.07-2.38-2.94-3.53.24.97.77,2.51,2.04,5.79.15,0,.3.06.41.19.22.27.22.7,0,.97-.23.27-.58.27-.8,0-.22-.25-.22-.65-.02-.92-1.1-2.82-1.65-4.37-1.94-5.39.19,1.53.44,3.27.58,4.28.1.03.21.08.29.18.22.26.22.69,0,.96-.22.27-.58.27-.81,0-.23-.27-.23-.7,0-.96.02-.02.04-.03.06-.05-.26-1.62-.6-4.8-.76-6.48-.01-.02-.02-.03-.03-.05-.35,2.39-.31,6.67,0,7.27l-.2.14c.22.26.22.7,0,.96-.23.27-.58.27-.81,0-.22-.27-.22-.7,0-.97M273.45,300.59c.22.27.22.7,0,.97-.22.27-.58.27-.81,0-.22-.27-.22-.7,0-.97.23-.26.58-.26.81,0M274.64,305.89c.22.26.22.7,0,.96-.22.27-.58.27-.8,0-.23-.26-.23-.69,0-.96.22-.27.59-.27.81,0"/><path class="cls-5" d="M138.43,294c1.39.39,4.37-.46,6.07-1.6,1.71-1.13-1.55.91-2.84,5.88-.84,3.27-.53,5.01-.17,6.08.12.34.24.61.34.84.12.3.32.47.54.55.49.19,1.1,0,1.35-.18,0,0,.31.53.53.73.21.2,2.14-.13,4.13-1.63,1.34-1.02,2.38-2.18,3.19-3.35.66-.95,1.15-1.91,1.52-2.81.6-1.45.88-2.73.96-3.54,0,0,.58.9,1.52,1.95.38.43.82.88,1.3,1.31.91.81,1.98,1.52,3.08,1.76,3.11.69,5.32.67,6.81-.21,1.49-.88.93-2.13.82-2.98-.14-.85,1.91-.03,2.81-2.29.9-2.25-.17-4.67-1.02-6.38,0-.01,0-.02,0-.03-.25-.5-.74-1.04-1.36-1.55-1.5-1.24-3.8-2.3-5.4-2.22,0,0-.02,0-.04,0,1.29-.24,5.01-1.39,8.28-5.86,2.3-3.13,2.01-4.33,1.93-5.04-.08-.72-1.35-1.01-1.66-1.02-.3,0,.08-1.79-.04-2.41-.12-.63-2.05-.72-3.33-.5-3.41.6-7.84,4.83-8.83,6.27.54-1.07,1.83-3.98,1.58-5.61-.36-2.26-.96-2.72-1.52-3.36-.58-.63-2.18,1.52-2.18,1.52,0,0-.26-1.22-.83-1.42-.31-.12-.73.04-1.21.32-.75.46-1.63,1.29-2.42,2.16-1.02,1.13-1.89,2.32-2.08,2.75-.33.74-1.01,3.16-.74,5.42.07.61.22,1.2.45,1.76-.08.03-.17.05-.25.08-.13.03-.24.06-.37.1-.91-.33-2.66-.59-5.29.95-.15.08-.28.16-.43.25-2.74,1.74-5.48,6.86-5.95,7.92,0,0-.41,1.03.02,1.21.43.17.83.09,1.19.71.17.3-1.05,1.81-1.05,1.81,0,0-.77,1.28.61,1.68M153.44,293.86c-.23.19-.55.14-.71-.1-.16-.25-.1-.6.12-.79.23-.19.54-.14.71.1.16.25.1.6-.12.79M157.01,292.28c.24-.19.55-.14.71.1.16.25.1.6-.13.79-.23.19-.54.14-.7-.1-.16-.24-.1-.59.12-.78M159.73,290.68c.23-.19.55-.14.7.1.16.25.1.6-.12.79-.23.19-.55.15-.71-.1-.16-.24-.1-.59.13-.79M152.01,281.72c.91-.87,1.94-1.67,2.37-1.99.04-.11.08-.21.16-.28.23-.22.58-.21.77.03.19.25.16.62-.06.84-.24.23-.58.21-.77-.04,0,0,0-.01-.02-.01-.63.49-1.94,1.54-2.79,2.49.77-.34,2.37-.96,5.59-2.18.03-.08.08-.17.15-.23.23-.22.58-.2.77.04.19.24.17.62-.07.84-.24.23-.58.21-.77-.03-.02-.03-.03-.06-.05-.09-1.59.61-3.56,1.37-4.79,1.87,1.26-.02,3.49-.05,6.64-.07.01-.01.02-.03.03-.03.23-.23.58-.21.77.03.19.25.17.62-.06.84-.08.08-.17.11-.27.14.09.23.02.51-.17.67-.03.03-.07.04-.1.05.44.09.81.17,1.06.22.02-.04.05-.07.07-.11.24-.23.58-.21.77.03.19.25.17.62-.06.84-.23.22-.58.21-.76-.03-.07-.08-.1-.17-.11-.25-1.82-.39-5.21-1.07-7.33-1.33,2.13.64,5.19,1.5,6.12,1.76.21-.09.44-.04.58.15.2.25.16.62-.06.84-.24.22-.58.2-.77-.04-.13-.15-.15-.36-.09-.55-1.32-.37-4.87-1.36-6.81-1.97,1.57,1.39,5.5,3.19,7.24,3.95.02.01.04.02.06.03.02-.02.03-.05.05-.07.03-.03.08-.05.12-.07.18-.04.37.03.49.2.16.25.1.6-.13.78-.08.07-.17.1-.26.11-.11-.03-.21-.08-.29-.17-.07-.09-.09-.2-.11-.3-.04-.02-.08-.04-.12-.06-1.67-.73-5.22-2.35-7.01-3.75,1.16,1.26,3.04,2.96,4.38,4.16,0-.15.07-.3.19-.41.24-.22.57-.21.77.03.19.24.16.62-.08.84-.07.06-.14.1-.22.13.12.1.23.2.33.29.1.09.19.16.26.23.22-.12.49-.09.65.11.19.25.16.62-.07.85-.23.22-.57.2-.77-.04-.12-.15-.14-.36-.09-.55-.08-.06-.17-.14-.26-.22-1.36-1.21-4.24-3.74-5.67-5.37,0,.06,0,.13,0,.19.72,1.13,2.07,2.76,2.97,3.84.17.2.31.38.44.54.22-.11.47-.07.63.13.19.24.16.62-.08.84-.03.03-.08.05-.11.07.16,0,.32.06.43.21.16.25.1.59-.13.79-.22.18-.54.14-.71-.1-.16-.25-.1-.59.13-.79.03-.01.05-.02.07-.03-.16.02-.33-.04-.44-.18-.12-.16-.14-.37-.08-.57-.15-.17-.3-.36-.48-.57-.77-.94-1.8-2.16-2.54-3.21.15.86.54,2.23,1.53,5.13.14,0,.27.07.37.19.19.25.16.63-.07.84-.23.22-.58.21-.77-.03-.18-.23-.16-.58.05-.81-.85-2.5-1.26-3.88-1.47-4.78.07,1.34.18,2.87.25,3.75.09.03.18.08.25.17.19.24.17.61-.06.84-.24.22-.58.2-.77-.04-.2-.24-.17-.62.06-.84.02-.01.05-.02.06-.04-.14-1.42-.22-4.2-.27-5.67,0-.01,0-.03-.02-.04-.5,2.06-.77,5.79-.52,6.32l-.19.12c.18.24.17.62-.07.84-.23.22-.57.21-.76-.03-.19-.25-.17-.62.07-.85.14-.14.32-.17.49-.13-.25-1.4.23-6.15.95-7.54.26-.51.8-1.11,1.39-1.69"/></g></svg>